<svg xmlns="http://www.w3.org/2000/svg" width="638" height="226" fill="none"><path fill="#000" fill-opacity=".05" d="M638 119.375V96.879h-49.764l-22.275 25.258v63.211h29.879v-28.31h36.989l-.266-22.497H595.84v-15.166H638Zm-47.422 86.727c2.387 0 3.757-1.102 3.779-3.022h-1.547c-.044 1.147-.906 1.809-2.232 1.809-1.369 0-2.21-.662-2.231-1.809h-1.569c.022 1.92 1.369 3.022 3.8 3.022Zm-6.651 16.522h2.033l9.171-11.889v11.889h2.165v-15.44h-2.033l-9.148 11.911v-11.911h-2.188v15.44Zm-18.283-1.919v-4.985h7.756v-1.875h-7.756v-4.742h8.707v-1.919h-10.917v15.44h11.226v-1.919h-9.016Zm-17.531-13.521h-6.033v15.44h2.209v-4.676h3.824c4.022 0 6.452-2.029 6.452-5.382 0-3.353-2.43-5.382-6.452-5.382Zm-.066 8.845h-3.758v-6.926h3.758c2.828 0 4.309 1.257 4.309 3.463 0 2.206-1.481 3.463-4.309 3.463Zm-24.25 4.676v-4.985h7.756v-1.875h-7.756v-4.742h8.707v-1.919h-10.917v15.44h11.226v-1.919h-9.016Zm-14.88-6.087c1.503-.574 2.409-1.765 2.409-3.464 0-2.58-2.033-3.97-5.392-3.97h-6.651v15.44h7.071c3.8 0 5.746-1.566 5.746-4.212 0-2.008-1.105-3.288-3.183-3.794Zm-7.447-5.692h4.31c2.122 0 3.314.882 3.314 2.537 0 1.654-1.192 2.515-3.314 2.515h-4.31v-5.052Zm4.84 11.956h-4.84v-5.228h4.84c2.321 0 3.558.794 3.558 2.582 0 1.808-1.237 2.646-3.558 2.646Zm-18.128-.177v-13.521h-10.861l-.154 4.963c-.155 4.699-.663 8.426-2.784 8.558h-.751l-.023 5.295h2.055l.022-3.376h12.717V226h2.056v-5.295h-2.277Zm-9.071-8.36.111-3.242h6.773v11.602h-8.718c1.326-1.19 1.702-4.588 1.834-8.36Zm-26.072 10.279h2.32l-7.027-15.44h-2.187l-7.005 15.44h2.275l1.702-3.859h8.22l1.702 3.859ZM443.891 217l3.336-7.567 3.337 7.567h-6.673Zm-10.328-9.816h-12.75v1.919h5.281v13.521h2.165v-13.521h5.304v-1.919Zm-35.342 0v6.639h-8.883v-6.639h-2.21v15.44h2.21v-6.882h8.883v6.882h2.21v-15.44h-2.21Zm-28.667 15.617c4.705 0 8.197-3.352 8.197-7.897 0-4.544-3.492-7.897-8.197-7.897-4.753 0-8.243 3.375-8.243 7.897s3.49 7.897 8.243 7.897Zm0-1.962c-3.471 0-6.034-2.516-6.034-5.935 0-3.419 2.563-5.934 6.034-5.934 3.424 0 5.987 2.515 5.987 5.934s-2.563 5.935-5.987 5.935Zm-17.511 1.785h2.52l-5.789-7.963 5.524-7.477h-2.365l-4.861 6.705h-3.271v-6.705h-2.165v15.44h2.165v-6.793h3.227l5.015 6.793Zm-23.209 0h2.187v-15.44h-2.187v15.44Zm-12.671-8.006c1.503-.574 2.409-1.765 2.409-3.464 0-2.58-2.033-3.97-5.392-3.97h-6.651v15.44h7.071c3.801 0 5.745-1.566 5.745-4.212 0-2.008-1.105-3.288-3.182-3.794Zm-7.447-5.692h4.309c2.122 0 3.315.882 3.315 2.537 0 1.654-1.193 2.515-3.315 2.515h-4.309v-5.052Zm4.839 11.956h-4.839v-5.228h4.839c2.321 0 3.558.794 3.558 2.582 0 1.808-1.237 2.646-3.558 2.646Zm-36.49 1.919c4.707 0 8.197-3.352 8.197-7.897 0-4.544-3.49-7.897-8.197-7.897-4.751 0-8.243 3.375-8.243 7.897s3.492 7.897 8.243 7.897Zm0-1.962c-3.47 0-6.033-2.516-6.033-5.935 0-3.419 2.563-5.934 6.033-5.934 3.425 0 5.988 2.515 5.988 5.934s-2.563 5.935-5.988 5.935Zm-28.459-13.655-.243 6.507c-.178 4.786-.84 7.059-2.762 7.059-.243 0-.442-.022-.707-.088l-.155 1.962c.531.133.95.177 1.392.177 3.05 0 4-3.045 4.199-9.176l.155-4.522h6.839v13.521h2.165v-15.44h-10.883Zm-25.497 0v15.44h2.187v-13.521h8.972v13.521h2.165v-15.44h-13.324Zm-18.283 13.521v-4.985h7.756v-1.875h-7.756v-4.742h8.706v-1.919h-10.916v15.44h11.226v-1.919h-9.016Zm-10.703-13.521h-12.751v1.919h5.281v13.521h2.166v-13.521h5.304v-1.919ZM50.318 0H0v48.347h50.318v99.235l50.32-47.913V48.347h50.318V0H101.01L50.318 48.347V0Zm448.156 163.23c-11.015 0-19.877-8.341-19.877-22.117 0-13.776 8.862-22.117 19.877-22.117 11.015 0 19.878 8.341 19.878 22.117 0 13.776-8.863 22.117-19.878 22.117Zm0 24.14c28.867 0 50.011-19.464 50.011-46.257 0-26.794-21.144-46.257-50.011-46.257-28.866 0-50.01 19.463-50.01 46.257 0 26.793 21.144 46.257 50.01 46.257Zm-316.911-2.022h29.879v-65.341h25.955V96.879h-62.05l-24.284 23.128h30.5v65.341Zm110.912-44.739h-10.887v-20.728h10.887c8.229 0 12.155 3.918 12.155 10.363 0 6.445-3.926 10.365-12.155 10.365Zm1.9-43.73h-17.519l-25.148 23.885v64.584h29.88V163.61h12.787c24.688 0 40.388-12.892 40.388-33.366s-15.7-33.365-40.388-33.365Zm109.647 33.365c0 6.445-3.926 10.365-12.156 10.365h-10.887v-20.728h10.887c8.23 0 12.156 3.918 12.156 10.363Zm.126 55.104h31.905l-18.612-27.299c10.636-5.435 16.713-15.04 16.713-27.805 0-20.474-15.7-33.365-40.388-33.365h-20.339L351.1 118.294v67.054h29.879v-22.244h8.102l15.067 22.244Z"/></svg>