<svg xmlns="http://www.w3.org/2000/svg" width="194" height="69" fill="none"><path fill="#fff" d="M194 36.363V29.51h-15.132l-6.773 7.694V56.46h9.085v-8.624h11.247l-.08-6.852H181.18v-4.62H194ZM179.58 62.78c.726 0 1.142-.336 1.149-.92h-.47c-.014.349-.275.55-.679.55-.416 0-.672-.201-.678-.55h-.477c.006.584.416.92 1.155.92Zm-2.022 5.033h.618l2.788-3.622v3.622h.659V63.11h-.618l-2.782 3.629V63.11h-.665v4.704Zm-5.56-.585V65.71h2.359v-.57h-2.359v-1.445h2.648v-.585h-3.32v4.704h3.414v-.585h-2.742Zm-5.33-4.119h-1.835v4.704h.672v-1.425h1.163c1.223 0 1.962-.618 1.962-1.64 0-1.02-.739-1.639-1.962-1.639Zm-.021 2.695h-1.142v-2.11h1.142c.861 0 1.311.383 1.311 1.055 0 .672-.45 1.055-1.311 1.055Zm-7.373 1.424V65.71h2.358v-.57h-2.358v-1.445h2.647v-.585h-3.319v4.704h3.413v-.585h-2.741Zm-4.525-1.854c.457-.175.732-.538.732-1.055 0-.786-.618-1.21-1.639-1.21h-2.022v4.704h2.15c1.155 0 1.747-.477 1.747-1.284 0-.611-.336-1.001-.968-1.155Zm-2.264-1.734h1.31c.645 0 1.008.269 1.008.773s-.363.766-1.008.766h-1.31v-1.54Zm1.471 3.642h-1.471V65.69h1.471c.706 0 1.082.242 1.082.787 0 .55-.376.806-1.082.806Zm-5.512-.054V63.11h-3.302l-.047 1.512c-.047 1.431-.202 2.567-.847 2.607h-.228l-.007 1.613h.625l.006-1.028h3.867v1.028h.625v-1.613h-.692Zm-2.758-2.547.034-.987h2.059v3.534h-2.651c.403-.363.518-1.397.558-2.547Zm-7.928 3.132h.705l-2.136-4.704h-.665l-2.13 4.704h.691l.518-1.176h2.499l.518 1.176Zm-2.782-1.714 1.015-2.304 1.014 2.304h-2.029Zm-3.14-2.99h-3.877v.585h1.606v4.119h.658v-4.12h1.613v-.584Zm-10.747 0v2.023h-2.701V63.11h-.672v4.704h.672v-2.097h2.701v2.097h.672V63.11h-.672Zm-8.717 4.758c1.431 0 2.493-1.022 2.493-2.406 0-1.384-1.062-2.406-2.493-2.406-1.445 0-2.506 1.029-2.506 2.406 0 1.377 1.061 2.406 2.506 2.406Zm0-.598c-1.055 0-1.835-.767-1.835-1.808s.78-1.808 1.835-1.808c1.041 0 1.821.767 1.821 1.808s-.78 1.808-1.821 1.808Zm-5.324.544h.766l-1.761-2.426 1.68-2.278h-.719l-1.478 2.043h-.995V63.11h-.658v4.704h.658v-2.07h.981l1.526 2.07Zm-7.058 0h.665V63.11h-.665v4.704Zm-3.853-2.44c.457-.174.733-.537.733-1.054 0-.786-.619-1.21-1.64-1.21h-2.022v4.704h2.15c1.156 0 1.747-.477 1.747-1.284 0-.611-.336-1.001-.968-1.155Zm-2.264-1.733h1.31c.645 0 1.008.269 1.008.773s-.363.766-1.008.766h-1.31v-1.54Zm1.471 3.642h-1.471V65.69h1.471c.706 0 1.082.242 1.082.787 0 .55-.376.806-1.082.806Zm-11.095.585c1.43 0 2.492-1.022 2.492-2.406 0-1.384-1.061-2.406-2.492-2.406-1.445 0-2.507 1.029-2.507 2.406 0 1.377 1.062 2.406 2.507 2.406Zm0-.598c-1.055 0-1.835-.767-1.835-1.808s.78-1.808 1.835-1.808c1.041 0 1.82.767 1.82 1.808s-.779 1.808-1.82 1.808Zm-8.654-4.16-.074 1.982c-.054 1.458-.255 2.15-.84 2.15a.816.816 0 0 1-.215-.026l-.047.598c.161.04.289.054.423.054.928 0 1.217-.928 1.277-2.796l.047-1.377h2.08v4.119h.658V63.11h-3.31Zm-7.753 0v4.704h.665v-4.12h2.728v4.12h.658V63.11h-4.051Zm-5.56 4.119V65.71h2.359v-.57h-2.359v-1.445h2.648v-.585h-3.32v4.704h3.414v-.585h-2.742Zm-3.254-4.119h-3.877v.585h1.606v4.119h.658v-4.12h1.613v-.584ZM15.301 0H0v14.727h15.3v30.228L30.602 30.36V14.727h15.301V0H30.715L15.3 14.727V0Zm136.273 49.722c-3.35 0-6.044-2.541-6.044-6.738 0-4.196 2.694-6.737 6.044-6.737 3.349 0 6.044 2.541 6.044 6.737 0 4.197-2.695 6.738-6.044 6.738Zm0 7.353c8.777 0 15.207-5.93 15.207-14.09 0-8.162-6.43-14.09-15.207-14.09-8.778 0-15.207 5.928-15.207 14.09 0 8.16 6.429 14.09 15.207 14.09Zm-96.365-.616h9.085V36.555h7.892V29.51H53.32l-7.384 7.045h9.274V56.46ZM88.934 42.83h-3.31v-6.314h3.31c2.503 0 3.697 1.193 3.697 3.157 0 1.963-1.194 3.157-3.697 3.157Zm.578-13.32h-5.327l-7.647 7.275v19.673h9.086v-6.622h3.888c7.507 0 12.281-3.927 12.281-10.163 0-6.237-4.774-10.164-12.28-10.164Zm33.341 10.163c0 1.963-1.194 3.157-3.696 3.157h-3.311v-6.314h3.311c2.502 0 3.696 1.193 3.696 3.157Zm.038 16.785h9.702l-5.66-8.316c3.235-1.655 5.083-4.581 5.083-8.47 0-6.236-4.775-10.163-12.281-10.163h-6.185l-6.789 6.523V56.46h9.085v-6.776h2.464l4.581 6.776Z"/></svg>