<svg xmlns="http://www.w3.org/2000/svg" width="248" height="88" fill="none"><path fill="#F7292F" d="M248 46.482v-8.76h-19.344l-8.659 9.836V72.17h11.615V61.147h14.378l-.103-8.76h-14.275v-5.905H248Zm-18.433 33.77c.927 0 1.46-.429 1.469-1.177h-.602c-.017.447-.352.705-.867.705-.533 0-.86-.258-.868-.705h-.61c.009.748.533 1.177 1.478 1.177Zm-2.586 6.434h.79l3.565-4.63v4.63h.842v-6.013h-.79l-3.557 4.638v-4.638h-.85v6.013Zm-7.107-.748v-1.94h3.015v-.731h-3.015v-1.846h3.385v-.748h-4.244v6.013h4.364v-.748h-3.505Zm-6.814-5.265h-2.345v6.013h.858v-1.821h1.487c1.563 0 2.508-.79 2.508-2.096s-.945-2.096-2.508-2.096Zm-.026 3.445h-1.461V81.42h1.461c1.099 0 1.675.49 1.675 1.348 0 .859-.576 1.349-1.675 1.349Zm-9.426 1.82v-1.94h3.015v-.731h-3.015v-1.846h3.384v-.748h-4.243v6.013h4.363v-.748h-3.504Zm-5.784-2.37c.584-.224.936-.687.936-1.349 0-1.004-.79-1.546-2.096-1.546h-2.585v6.013h2.748c1.478 0 2.234-.61 2.234-1.64 0-.782-.43-1.28-1.237-1.478Zm-2.895-2.216h1.675c.825 0 1.288.343 1.288.987 0 .645-.463.98-1.288.98h-1.675v-1.967Zm1.881 4.655h-1.881v-2.035h1.881c.902 0 1.383.309 1.383 1.005 0 .704-.481 1.03-1.383 1.03Zm-7.046-.069v-5.265h-4.222l-.06 1.933c-.06 1.83-.258 3.281-1.082 3.332h-.292L184.099 88h.799l.008-1.314h4.944V88h.799v-2.062h-.885Zm-3.526-3.255.043-1.262h2.632v4.517h-3.388c.515-.463.661-1.786.713-3.255Zm-10.135 4.003h.902l-2.732-6.013h-.85l-2.723 6.013h.885l.661-1.503h3.195l.662 1.503Zm-3.556-2.19 1.297-2.947 1.297 2.947h-2.594Zm-4.015-3.823h-4.956v.748h2.053v5.265h.842V81.42h2.061v-.748Zm-13.737 0v2.586h-3.453v-2.586h-.86v6.013h.86v-2.68h3.453v2.68h.858v-6.013h-.858Zm-11.144 6.081c1.829 0 3.186-1.305 3.186-3.074 0-1.77-1.357-3.076-3.186-3.076-1.847 0-3.204 1.315-3.204 3.076 0 1.76 1.357 3.074 3.204 3.074Zm0-.764c-1.349 0-2.345-.98-2.345-2.31 0-1.332.996-2.311 2.345-2.311 1.331 0 2.327.98 2.327 2.31 0 1.332-.996 2.311-2.327 2.311Zm-6.807.696h.98l-2.25-3.101 2.147-2.912h-.919l-1.89 2.611h-1.272v-2.61h-.841v6.012h.841V84.04h1.255l1.949 2.646Zm-9.022 0h.851v-6.013h-.851v6.013Zm-4.925-3.118c.585-.224.937-.687.937-1.349 0-1.004-.791-1.546-2.096-1.546h-2.586v6.013h2.749c1.477 0 2.233-.61 2.233-1.64 0-.782-.429-1.28-1.237-1.478Zm-2.895-2.216h1.675c.825 0 1.289.343 1.289.987 0 .645-.464.98-1.289.98h-1.675v-1.967Zm1.882 4.655h-1.882v-2.035h1.882c.902 0 1.383.309 1.383 1.005 0 .704-.481 1.03-1.383 1.03Zm-14.185.747c1.83 0 3.187-1.305 3.187-3.074 0-1.77-1.357-3.076-3.187-3.076-1.847 0-3.204 1.315-3.204 3.076 0 1.76 1.357 3.074 3.204 3.074Zm0-.764c-1.349 0-2.345-.98-2.345-2.31 0-1.332.996-2.311 2.345-2.311 1.332 0 2.328.98 2.328 2.31 0 1.332-.996 2.311-2.328 2.311Zm-11.062-5.317-.095 2.534c-.069 1.864-.326 2.749-1.073 2.749-.095 0-.172-.009-.275-.035l-.06.765c.206.051.369.068.54.068 1.186 0 1.556-1.185 1.633-3.573l.06-1.76h2.659v5.265h.841v-6.013h-4.23Zm-9.911 0v6.013h.85V81.42h3.488v5.265h.841v-6.013h-5.18Zm-7.107 5.265v-1.94h3.015v-.731h-3.015v-1.846h3.384v-.748H78.76v6.013h4.363v-.748H79.62Zm-4.16-5.265h-4.957v.748h2.053v5.265h.842V81.42h2.062v-.748ZM19.559 0H0v18.825h19.56v38.64L39.12 38.81V18.825h19.559V0H39.264L19.56 18.825V0Zm174.205 63.559c-4.281 0-7.726-3.248-7.726-8.612s3.445-8.612 7.726-8.612c4.282 0 7.727 3.248 7.727 8.612s-3.445 8.612-7.727 8.612Zm0 9.4c11.221 0 19.44-7.58 19.44-18.012 0-10.433-8.219-18.012-19.44-18.012-11.221 0-19.439 7.579-19.439 18.012 0 10.432 8.218 18.011 19.439 18.011ZM70.576 72.17h11.615V46.728H92.28v-9.005H68.16l-9.44 9.005h11.856v25.443Zm43.113-17.42h-4.232v-8.072h4.232c3.199 0 4.725 1.526 4.725 4.035 0 2.51-1.526 4.036-4.725 4.036Zm.739-17.028h-6.81l-9.775 9.3v25.148h11.614v-8.464h4.971c9.596 0 15.699-5.02 15.699-12.992 0-7.973-6.103-12.992-15.699-12.992Zm42.621 12.992c0 2.51-1.526 4.035-4.725 4.035h-4.232v-8.07h4.232c3.199 0 4.725 1.525 4.725 4.035Zm.049 21.456H169.5l-7.235-10.63c4.135-2.116 6.497-5.856 6.497-10.826 0-7.973-6.103-12.992-15.699-12.992h-7.906l-8.679 8.338v26.11h11.614v-8.662h3.15l5.856 8.662Z"/></svg>