<svg xmlns="http://www.w3.org/2000/svg" width="34" height="46" fill="none"><path fill="#EC2C31" fill-rule="evenodd" d="M.684 43.716V2.534A1.91 1.91 0 0 1 2.592.625H19.28l14.287 14.287v28.804a1.91 1.91 0 0 1-1.909 1.909H2.593a1.91 1.91 0 0 1-1.91-1.909Z" clip-rule="evenodd"/><path fill="#494949" fill-rule="evenodd" d="m19.279.625 14.287 14.287H21.187a1.91 1.91 0 0 1-1.908-1.908V.625Z" clip-rule="evenodd"/><path fill="#E6E6E6" d="M10.07 35.495c0 .611-.223 1.105-.668 1.479-.38.325-.937.489-1.668.492h-.97v2.956h-.967V33.53h1.937c.731 0 1.287.163 1.668.487.445.388.668.88.668 1.478Zm-1.419.922c.279-.207.419-.514.419-.922 0-.406-.14-.709-.419-.906-.254-.179-.586-.269-.995-.269h-.892v2.356h.892c.413 0 .744-.086.995-.259ZM15.752 34.428c.713.653 1.07 1.502 1.07 2.548 0 1.045-.357 1.895-1.07 2.549-.652.598-1.51.898-2.575.898H11.1V33.53h2.078c1.066 0 1.924.299 2.574.898Zm.08 2.546c0-.8-.273-1.459-.82-1.976-.452-.425-1.063-.64-1.835-.64h-1.11v5.225h1.11c.774 0 1.386-.213 1.834-.64.548-.52.82-1.175.82-1.97ZM21.773 33.53v.81h-2.858v2.297h2.688v.81h-2.688v2.975h-.966V33.53h3.823Z"/></svg>