<?xml version="1.0" standalone="no"?>
<!DOCTYPE svg PUBLIC "-//W3C//DTD SVG 20010904//EN"
 "http://www.w3.org/TR/2001/REC-SVG-20010904/DTD/svg10.dtd">
<svg version="1.0" xmlns="http://www.w3.org/2000/svg"
 width="720.000000pt" height="720.000000pt" viewBox="0 0 720.000000 720.000000"
 preserveAspectRatio="xMidYMid meet">
<metadata>
Created by potrace 1.14, written by Peter Selinger 2001-2017
</metadata>
<g transform="translate(0.000000,720.000000) scale(0.100000,-0.100000)"
fill="#000000" stroke="none">
<path d="M0 5897 l0 -1224 1223 1 1222 1 0 1220 0 1220 -1222 3 -1223 2 0
-1223z"/>
<path d="M4634 6993 c-65 -70 -144 -153 -174 -184 -30 -32 -100 -106 -155
-164 -55 -59 -118 -126 -140 -150 -115 -121 -222 -235 -330 -350 -66 -71 -136
-145 -155 -165 -39 -40 -264 -279 -330 -350 -58 -62 -276 -293 -330 -350 -25
-26 -74 -79 -110 -117 -121 -130 -305 -324 -382 -406 -70 -73 -78 -85 -79
-122 0 -22 -1 -1055 -2 -2297 -2 -2004 0 -2255 13 -2245 8 6 29 25 46 42 17
16 76 70 129 120 112 102 231 213 286 265 20 19 80 76 134 125 125 116 140
130 271 252 60 55 125 115 144 133 19 18 86 80 149 139 63 58 129 120 146 136
102 94 163 150 275 255 69 64 139 129 155 144 28 26 184 171 280 261 24 22 85
78 136 125 131 121 139 129 140 148 0 9 1 562 1 1227 l1 1210 1223 -1 1224 -1
0 1223 0 1224 -1224 0 -1223 0 -119 -127z"/>
</g>
</svg>
