<svg xmlns="http://www.w3.org/2000/svg" width="11" height="12" fill="none"><path fill="#111" stroke="#000" d="M10.454 3.396 9.321 7.347a.817.817 0 0 1-.781.59H3.835a.817.817 0 0 1-.781-.59L1.939 3.453V3.45l-.02-.067-.416-1.458-.104-.363H.562a.062.062 0 1 1 0-.125h.598a.452.452 0 0 1 .427.32l.337 1.191.102.365h8.364a.067.067 0 0 1 .064.083ZM4.058 9.817a.438.438 0 1 1-.616.616.438.438 0 0 1 .616-.616Zm4.324-.056a.438.438 0 1 1 .486.728.438.438 0 0 1-.486-.728Zm1.746-5.686.181-.638H2.066l.181.638.924 3.239.002.009a.692.692 0 0 0 .659.49H8.543a.692.692 0 0 0 .659-.49l.002-.01.924-3.238Z"/></svg>