<svg xmlns="http://www.w3.org/2000/svg" width="17" height="11" fill="none"><path fill="#111" d="M15.625 3.719a.594.594 0 0 0-.594.594v4.75a.594.594 0 0 1-.594.593H2.563a.594.594 0 0 1-.594-.594v-4.75a.594.594 0 0 0-1.188 0v4.75a1.781 1.781 0 0 0 1.781 1.782h11.876a1.782 1.782 0 0 0 1.78-1.781v-4.75a.594.594 0 0 0-.593-.594Z"/><path fill="#111" d="M8.144 7.162a.594.594 0 0 0 .712 0l7.012-5.26a.594.594 0 0 0 .179-.73 1.781 1.781 0 0 0-1.61-1.015H2.563a1.781 1.781 0 0 0-1.61 1.015.594.594 0 0 0 .179.73l7.012 5.26ZM2.562 1.345h11.876a.534.534 0 0 1 .166 0L8.5 5.945 2.396 1.344a.535.535 0 0 1 .167 0Z"/></svg>
