<svg xmlns="http://www.w3.org/2000/svg" width="15" height="16" fill="none"><path fill="#111" d="M7.322.375c-1.128 0-3.919.119-5.403 1.544C.85 2.929.434 4.472.375 6.312c-.119 2.91.534 4.75 1.603 5.7.238.179.831.654 1.96 1.01v1.484s0 .594.356.713c.06 0 .119.06.178.06.356 0 .653-.416 1.069-.832.356-.416.653-.713.83-1.01h1.307c1.128 0 3.919-.118 5.403-1.543 1.069-1.069 1.485-2.613 1.485-4.572.059-.297.059-.653.059-1.01-.06-2.196-.713-3.68-1.603-4.512-.356-.297-1.9-1.425-5.225-1.425h-.475Zm-.119 1.128h.535c3.146 0 4.334 1.01 4.453 1.128.712.594 1.128 1.9 1.187 3.622v.238c.06.356.06.653.06.83-.06 1.782-.416 2.97-1.129 3.742-1.246 1.128-3.859 1.187-4.571 1.187H6.609l-.95 1.069-.593.653-.12.178c-.118.119-.296.356-.415.416v-2.672c-1.187-.297-1.662-.713-1.781-.832-.831-.712-1.306-2.434-1.187-4.75V5.72c.118-1.425.475-2.375 1.068-3.028 1.247-1.128 3.86-1.188 4.572-1.188Zm-.06 1.306a.208.208 0 0 0 0 .416c2.198 0 4.098 1.484 4.098 4.275 0 .297.415.297.415 0 0-3.028-2.018-4.75-4.512-4.69Zm-2.352.55a.52.52 0 0 0-.378.103c-.594.297-1.188.892-1.01 1.545 0 0 .119.534.772 1.662.356.534.653 1.01.95 1.365.297.416.772.891 1.247 1.247.95.772 2.434 1.544 3.087 1.722.594.178 1.247-.415 1.544-1.01a.567.567 0 0 0-.178-.712c-.356-.356-.95-.772-1.366-1.01-.296-.177-.653-.059-.771.12l-.297.356c-.12.178-.416.178-.416.178-1.96-.534-2.494-2.553-2.494-2.553s0-.238.178-.416l.357-.297c.178-.118.297-.475.118-.771-.118-.179-.296-.535-.475-.713-.178-.237-.534-.653-.534-.653a.571.571 0 0 0-.334-.163Zm2.768.638c-.296-.06-.356.415-.059.415 1.663.12 2.613 1.247 2.553 2.672-.06.297.416.297.416 0 .06-1.662-1.01-3.028-2.91-3.087Zm.179 1.128c-.297-.06-.297.416 0 .416.712 0 1.068.415 1.068 1.128.06.297.475.297.475 0-.06-.95-.593-1.544-1.543-1.544Z"/></svg>
